<?xml version="1.0" encoding="UTF-8"?>
<svg width="36px" height="36px" viewBox="0 0 36 36" version="1.1" xmlns="http://www.w3.org/2000/svg" xmlns:xlink="http://www.w3.org/1999/xlink">
    <!-- Generator: Sketch 44.1 (41455) - http://www.bohemiancoding.com/sketch -->
    <title>list-start copy 3</title>
    <desc>Created with Sketch.</desc>
    <defs></defs>
    <g id="Other" stroke="none" stroke-width="1" fill="none" fill-rule="evenodd">
        <g id="Artboard-11" transform="translate(-319.000000, -456.000000)" fill-rule="nonzero">
            <g id="list-start-copy-3" transform="translate(337.000000, 474.000000) rotate(-180.000000) translate(-337.000000, -474.000000) translate(319.000000, 456.000000)">
                <path d="M17.7441429,0 C7.95985714,0 0,7.96071429 0,17.7454286 C0,27.5301429 7.95985714,35.4904286 17.7441429,35.4904286 C27.5305714,35.4904286 35.4917143,27.5301429 35.4917143,17.7454286 C35.4917143,7.96071429 27.5305714,0 17.7441429,0 Z" id="Shape" fill="#DFEBF3"></path>
                <path d="M21.8793755,18.8794286 L18.9226612,21.8378571 L18.9226612,12.0714286 C18.9226612,11.4795714 18.4430898,11 17.8512327,11 C17.2593755,11 16.7798041,11.4795714 16.7798041,12.0714286 L16.7798041,21.8352857 L13.8299469,18.8798571 C13.4120898,18.4611429 12.7332327,18.4607143 12.3145184,18.8781429 C11.8958041,19.2968571 11.8949469,19.9748571 12.3132327,20.3935714 L17.0926612,25.1824286 C17.1423755,25.2321429 17.1963755,25.2767143 17.2542327,25.3152857 C17.2713755,25.3268571 17.2898041,25.3341429 17.3073755,25.3444286 C17.3498041,25.3697143 17.3922327,25.3945714 17.4380898,25.4138571 C17.4629469,25.4245714 17.4899469,25.4297143 17.5156612,25.4382857 C17.5563755,25.4515714 17.5962327,25.467 17.6386612,25.476 C17.7080898,25.4897143 17.7788041,25.497 17.8508041,25.497 C17.9228041,25.497 17.9939469,25.4897143 18.0629469,25.476 C18.1100898,25.4665714 18.1542327,25.4498571 18.1983755,25.4344286 C18.2198041,25.4271429 18.2420898,25.4232857 18.2626612,25.4142857 C18.3123755,25.3937143 18.3586612,25.3667143 18.4036612,25.3388571 C18.4178041,25.3302857 18.4328041,25.3247143 18.4465184,25.3157143 C18.5052327,25.2762857 18.5600898,25.2317143 18.6098041,25.182 L23.3948041,20.394 C23.8130898,19.9752857 23.8130898,19.2968571 23.3943755,18.879 C22.9756612,18.4602857 22.2968041,18.4607143 21.8793755,18.8794286 Z" id="Shape" fill="#3579A6"></path>
            </g>
        </g>
    </g>
</svg>